<?xml version="1.0" standalone="no"?>
<!DOCTYPE svg PUBLIC "-//W3C//DTD SVG 20010904//EN"
 "http://www.w3.org/TR/2001/REC-SVG-20010904/DTD/svg10.dtd">
<svg version="1.0" xmlns="http://www.w3.org/2000/svg"
 width="128.000000pt" height="128.000000pt" viewBox="0 0 128.000000 128.000000"
 preserveAspectRatio="xMidYMid meet">

<g transform="translate(0.000000,128.000000) scale(0.100000,-0.100000)"
fill="#000000" stroke="none">
<path d="M456 1069 c-30 -24 -56 -69 -56 -99 0 -11 -7 -20 -15 -20 -29 0 -71
-28 -83 -55 -18 -39 -15 -111 7 -153 15 -31 21 -81 31 -290 12 -235 19 -278
40 -256 5 5 2 124 -6 264 -12 222 -17 261 -35 298 -16 32 -20 55 -16 84 7 51
28 73 70 73 29 0 32 3 38 38 8 51 26 83 56 96 34 16 38 15 78 -20 l35 -31 35
31 c38 33 55 37 85 21 26 -14 43 -46 49 -95 6 -38 8 -40 39 -40 67 0 92 -77
53 -159 -16 -34 -22 -84 -34 -296 -7 -140 -10 -259 -5 -265 20 -23 27 25 39
255 10 207 15 252 32 290 42 94 19 182 -54 206 -27 9 -35 18 -41 45 -4 20 -21
47 -42 66 -43 39 -90 44 -130 12 l-26 -20 -26 20 c-34 27 -84 27 -118 0z"/>
<path d="M217 1053 c-3 -7 -2 -61 2 -79 0 -4 8 -1 16 6 12 10 18 10 29 1 19
-16 25 -4 21 39 -4 46 -3 46 -17 32 -7 -7 -17 -8 -29 -2 -10 6 -19 7 -22 3z"/>
<path d="M477 1022 c-23 -26 -22 -94 1 -115 42 -38 94 -5 94 58 0 64 -58 98
-95 57z m63 -57 c0 -30 -22 -49 -38 -33 -27 27 -3 90 25 67 7 -7 13 -22 13
-34z"/>
<path d="M646 1018 c-22 -31 -20 -91 2 -111 41 -37 96 -4 96 58 0 65 -65 100
-98 53z m64 -53 c0 -30 -22 -49 -38 -33 -27 27 -3 90 25 67 7 -7 13 -22 13
-34z"/>
<path d="M357 862 c-27 -30 -21 -79 12 -113 37 -37 73 -38 100 -3 28 36 26 66
-5 103 -30 36 -81 42 -107 13z m77 -28 c20 -19 21 -70 2 -77 -19 -8 -66 30
-66 52 0 37 37 52 64 25z"/>
<path d="M742 857 c-33 -35 -38 -77 -12 -110 27 -34 59 -35 99 -1 58 48 35
134 -36 134 -18 0 -38 -9 -51 -23z m83 -27 c9 -28 -3 -58 -26 -71 -41 -22 -67
35 -32 73 21 24 50 23 58 -2z"/>
<path d="M535 732 c-16 -10 -36 -31 -44 -45 -8 -15 -24 -33 -37 -42 -43 -28
-36 -121 11 -139 9 -3 73 -6 141 -6 119 0 126 1 149 25 35 34 33 78 -5 117
-17 16 -35 39 -41 49 -28 54 -119 74 -174 41z m132 -49 c13 -16 36 -42 53 -60
34 -37 35 -41 16 -69 -14 -19 -24 -21 -133 -20 -65 1 -124 5 -130 9 -23 14
-15 65 12 83 13 9 27 25 31 36 3 10 20 28 37 39 41 25 84 18 114 -18z"/>
<path d="M225 590 c-4 -6 -3 -16 3 -22 6 -6 12 -6 17 2 4 6 3 16 -3 22 -6 6
-12 6 -17 -2z"/>
<path d="M935 551 c-7 -12 12 -24 25 -16 11 7 4 25 -10 25 -5 0 -11 -4 -15 -9z"/>
<path d="M966 421 c-23 -26 -17 -60 15 -84 23 -16 30 -17 50 -7 30 16 39 29
39 56 0 48 -71 72 -104 35z m61 -22 c16 -16 5 -39 -18 -39 -12 0 -19 7 -19 18
0 31 17 41 37 21z"/>
</g>
</svg>
