<?xml version="1.0" standalone="no"?>
<!DOCTYPE svg PUBLIC "-//W3C//DTD SVG 20010904//EN"
 "http://www.w3.org/TR/2001/REC-SVG-20010904/DTD/svg10.dtd">
<svg version="1.0" xmlns="http://www.w3.org/2000/svg"
 width="128.000000pt" height="128.000000pt" viewBox="0 0 128.000000 128.000000"
 preserveAspectRatio="xMidYMid meet">

<g transform="translate(0.000000,128.000000) scale(0.100000,-0.100000)"
fill="#000000" stroke="none">
<path d="M393 1136 c-70 -32 -116 -152 -94 -249 15 -67 42 -112 83 -137 106
-65 221 34 220 188 -1 151 -102 246 -209 198z"/>
<path d="M790 1143 c-71 -29 -113 -104 -113 -205 0 -207 197 -286 283 -113 49
97 24 241 -51 297 -27 20 -93 32 -119 21z"/>
<path d="M102 810 c-65 -40 -81 -139 -37 -226 30 -58 63 -84 114 -91 98 -13
167 97 130 208 -25 75 -89 129 -151 129 -13 0 -38 -9 -56 -20z"/>
<path d="M1064 816 c-36 -16 -76 -66 -93 -115 -37 -111 32 -221 130 -208 51 7
84 33 114 91 44 87 28 186 -37 226 -38 23 -70 25 -114 6z"/>
<path d="M575 691 c-147 -38 -271 -197 -283 -361 -4 -61 -2 -74 22 -113 17
-31 39 -52 69 -66 51 -25 75 -26 141 -6 63 19 169 19 232 0 66 -20 90 -19 141
6 30 14 52 35 69 66 24 39 26 52 22 113 -10 135 -108 285 -221 338 -52 24
-145 36 -192 23z"/>
</g>
</svg>
